<svg width="117" height="116" viewBox="0 0 117 116" fill="none" xmlns="http://www.w3.org/2000/svg">
<path d="M58.75 6C65.5787 6 72.3406 7.34502 78.6495 9.95827C84.9585 12.5715 90.6909 16.4018 95.5196 21.2305C100.348 26.0591 104.178 31.7915 106.792 38.1005C109.405 44.4094 110.75 51.1713 110.75 58C110.75 64.8287 109.405 71.5906 106.792 77.8995C104.178 84.2085 100.348 89.9409 95.5195 94.7696C90.6909 99.5982 84.9585 103.428 78.6495 106.042C72.3406 108.655 65.5787 110 58.75 110C51.9212 110 45.1594 108.655 38.8504 106.042C32.5415 103.428 26.8091 99.5982 21.9804 94.7695C17.1518 89.9409 13.3215 84.2084 10.7083 77.8995C8.09501 71.5906 6.75 64.8287 6.75 58C6.75 51.1712 8.09503 44.4094 10.7083 38.1004C13.3215 31.7915 17.1518 26.0591 21.9805 21.2304C26.8091 16.4018 32.5416 12.5715 38.8505 9.95825C45.1594 7.34501 51.9213 6 58.75 6L58.75 6Z" stroke="#344054" stroke-width="12" stroke-linecap="round" stroke-linejoin="round"/>
</svg>
