<svg width="136" height="136" viewBox="0 0 136 136" fill="none" xmlns="http://www.w3.org/2000/svg">
<path d="M68 6C76.142 6 84.2042 7.60368 91.7264 10.7195C99.2486 13.8353 106.083 18.4022 111.841 24.1594C117.598 29.9166 122.165 36.7514 125.281 44.2736C128.396 51.7958 130 59.8581 130 68C130 76.142 128.396 84.2042 125.281 91.7264C122.165 99.2486 117.598 106.083 111.841 111.841C106.083 117.598 99.2485 122.165 91.7264 125.281C84.2042 128.396 76.1419 130 68 130C59.858 130 51.7958 128.396 44.2736 125.281C36.7514 122.165 29.9166 117.598 24.1594 111.841C18.4021 106.083 13.8352 99.2485 10.7195 91.7263C7.60367 84.2042 6 76.1419 6 68C6 59.858 7.60369 51.7958 10.7195 44.2736C13.8353 36.7514 18.4022 29.9166 24.1594 24.1594C29.9166 18.4021 36.7515 13.8352 44.2737 10.7195C51.7959 7.60367 59.8581 5.99999 68 6L68 6Z" stroke="#344054" stroke-width="12" stroke-linecap="round" stroke-linejoin="round"/>
</svg>
