<svg width="116" height="116" viewBox="0 0 116 116" fill="none" xmlns="http://www.w3.org/2000/svg">
<path d="M58 6C64.8287 6 71.5906 7.34502 77.8995 9.95827C84.2085 12.5715 89.9409 16.4018 94.7696 21.2305C99.5982 26.0591 103.428 31.7915 106.042 38.1005C108.655 44.4094 110 51.1713 110 58C110 64.8287 108.655 71.5906 106.042 77.8995C103.428 84.2085 99.5982 89.9409 94.7695 94.7696C89.9409 99.5982 84.2085 103.428 77.8995 106.042C71.5906 108.655 64.8287 110 58 110C51.1712 110 44.4094 108.655 38.1004 106.042C31.7915 103.428 26.0591 99.5982 21.2304 94.7695C16.4018 89.9409 12.5715 84.2084 9.95826 77.8995C7.34501 71.5906 6 64.8287 6 58C6 51.1712 7.34503 44.4094 9.95828 38.1004C12.5715 31.7915 16.4018 26.0591 21.2305 21.2304C26.0591 16.4018 31.7916 12.5715 38.1005 9.95825C44.4094 7.34501 51.1713 6 58 6L58 6Z" stroke="#344054" stroke-width="12" stroke-linecap="round" stroke-linejoin="round"/>
</svg>
