<svg width="60" height="60" viewBox="0 0 60 60" fill="none" xmlns="http://www.w3.org/2000/svg">
<path d="M30 4C33.4144 4 36.7953 4.67251 39.9498 5.97913C43.1042 7.28576 45.9705 9.2009 48.3848 11.6152C50.7991 14.0295 52.7142 16.8958 54.0209 20.0502C55.3275 23.2047 56 26.5856 56 30C56 33.4144 55.3275 36.7953 54.0209 39.9498C52.7142 43.1042 50.7991 45.9705 48.3848 48.3848C45.9704 50.7991 43.1042 52.7142 39.9498 54.0209C36.7953 55.3275 33.4144 56 30 56C26.5856 56 23.2047 55.3275 20.0502 54.0209C16.8958 52.7142 14.0295 50.7991 11.6152 48.3848C9.20089 45.9704 7.28575 43.1042 5.97913 39.9498C4.67251 36.7953 4 33.4144 4 30C4 26.5856 4.67251 23.2047 5.97914 20.0502C7.28576 16.8958 9.20091 14.0295 11.6152 11.6152C14.0296 9.20089 16.8958 7.28575 20.0502 5.97913C23.2047 4.67251 26.5856 4 30 4L30 4Z" stroke="#344054" stroke-width="8" stroke-linecap="round" stroke-linejoin="round"/>
</svg>
