<svg width="180" height="132" viewBox="0 0 180 132" fill="none" xmlns="http://www.w3.org/2000/svg">
<rect width="180" height="132" rx="8" fill="#101828" fill-opacity="0.5"/>
<path d="M18 16L18 116" stroke="#344054" stroke-width="6" stroke-linecap="round"/>
<path d="M18 16L18 116" stroke="#4096FF" stroke-width="6" stroke-linecap="round"/>
<path d="M34 16L34 116" stroke="#344054" stroke-width="6" stroke-linecap="round"/>
<path d="M34 26L34 116" stroke="#4096FF" stroke-width="6" stroke-linecap="round"/>
<path d="M50 16L50 116" stroke="#344054" stroke-width="6" stroke-linecap="round"/>
<path d="M50 36L50 116" stroke="#4096FF" stroke-width="6" stroke-linecap="round"/>
<path d="M66 16L66 116" stroke="#344054" stroke-width="6" stroke-linecap="round"/>
<path d="M66 46L66 116" stroke="#4096FF" stroke-width="6" stroke-linecap="round"/>
<path d="M82 16L82 116" stroke="#344054" stroke-width="6" stroke-linecap="round"/>
<path d="M82 56L82 116" stroke="#4096FF" stroke-width="6" stroke-linecap="round"/>
<path d="M98 16L98 116" stroke="#344054" stroke-width="6" stroke-linecap="round"/>
<path d="M98 66L98 116" stroke="#4096FF" stroke-width="6" stroke-linecap="round"/>
<path d="M114 16L114 116" stroke="#344054" stroke-width="6" stroke-linecap="round"/>
<path d="M114 76L114 116" stroke="#4096FF" stroke-width="6" stroke-linecap="round"/>
<path d="M130 16L130 116" stroke="#344054" stroke-width="6" stroke-linecap="round"/>
<path d="M130 86L130 116" stroke="#4096FF" stroke-width="6" stroke-linecap="round"/>
<path d="M146 16L146 116" stroke="#344054" stroke-width="6" stroke-linecap="round"/>
<path d="M146 96L146 116" stroke="#4096FF" stroke-width="6" stroke-linecap="round"/>
<path d="M162 16L162 116" stroke="#344054" stroke-width="6" stroke-linecap="round"/>
<path d="M162 106L162 116" stroke="#4096FF" stroke-width="6" stroke-linecap="round"/>
</svg>
