<svg width="12" height="13" viewBox="0 0 12 13" fill="none" xmlns="http://www.w3.org/2000/svg">
<mask id="path-1-outside-1_1109_15528" maskUnits="userSpaceOnUse" x="-0.163086" y="0.802246" width="13" height="13" fill="black">
<rect fill="white" x="-0.163086" y="0.802246" width="13" height="13"/>
<path fill-rule="evenodd" clip-rule="evenodd" d="M8.81604 6.9011L10.7213 3.26652C11.0703 2.60067 10.5873 1.80225 9.83556 1.80225H2.2601C1.50832 1.80225 1.02538 2.60067 1.37441 3.26652L3.27961 6.90108L1.3744 10.5357C1.02537 11.2015 1.50832 11.9999 2.26009 11.9999H9.83555C10.5873 11.9999 11.0703 11.2015 10.7212 10.5357L8.81604 6.9011Z"/>
</mask>
<path fill-rule="evenodd" clip-rule="evenodd" d="M8.81604 6.9011L10.7213 3.26652C11.0703 2.60067 10.5873 1.80225 9.83556 1.80225H2.2601C1.50832 1.80225 1.02538 2.60067 1.37441 3.26652L3.27961 6.90108L1.3744 10.5357C1.02537 11.2015 1.50832 11.9999 2.26009 11.9999H9.83555C10.5873 11.9999 11.0703 11.2015 10.7212 10.5357L8.81604 6.9011Z" fill="#1570EF"/>
<path d="M8.81604 6.9011L7.93035 7.36537L7.68698 6.9011L7.93035 6.43683L8.81604 6.9011ZM10.7213 3.26652L11.6069 3.73079L11.6069 3.73079L10.7213 3.26652ZM1.37441 3.26652L0.488717 3.73079L0.488717 3.73079L1.37441 3.26652ZM3.27961 6.90108L4.1653 6.43681L4.40867 6.90108L4.1653 7.36535L3.27961 6.90108ZM1.3744 10.5357L0.488705 10.0714L0.488705 10.0714L1.3744 10.5357ZM10.7212 10.5357L9.83555 10.9999L9.83555 10.9999L10.7212 10.5357ZM7.93035 6.43683L9.83556 2.80224L11.6069 3.73079L9.70174 7.36537L7.93035 6.43683ZM9.83556 2.80224L9.83556 2.80225V0.802246C11.3391 0.802246 12.305 2.39909 11.6069 3.73079L9.83556 2.80224ZM9.83556 2.80225H2.2601V0.802246H9.83556V2.80225ZM2.2601 2.80225L2.2601 2.80225L0.488717 3.73079C-0.209337 2.3991 0.756543 0.802246 2.2601 0.802246V2.80225ZM2.2601 2.80225L4.1653 6.43681L2.39391 7.36535L0.488717 3.73079L2.2601 2.80225ZM4.1653 7.36535L2.26009 10.9999L0.488705 10.0714L2.39391 6.43681L4.1653 7.36535ZM2.26009 10.9999L2.26009 10.9999V12.9999C0.75654 12.9999 -0.209351 11.4031 0.488705 10.0714L2.26009 10.9999ZM2.26009 10.9999H9.83555V12.9999H2.26009V10.9999ZM9.83555 10.9999L9.83555 10.9999L11.6069 10.0714C12.305 11.4031 11.3391 12.9999 9.83555 12.9999V10.9999ZM9.83555 10.9999L7.93035 7.36537L9.70174 6.43683L11.6069 10.0714L9.83555 10.9999Z" fill="#4096FF" mask="url(#path-1-outside-1_1109_15528)"/>
</svg>
